<svg width="1440" height="424" viewBox="0 0 1440 424" fill="none" xmlns="http://www.w3.org/2000/svg">
<mask id="mask0_2_46" style="mask-type:alpha" maskUnits="userSpaceOnUse" x="0" y="0" width="1440" height="424">
<rect y="0.492493" width="1440" height="423.508" fill="#C4C4C4"/>
</mask>
<g mask="url(#mask0_2_46)">
<path d="M1514.02 410.726C1756.31 554.586 1015.82 498.554 237.028 466.104C-86.7527 466.104 -35.103 131.5 308.863 53.6204C613.89 -0.462492 744.609 168.938 988.019 149.322C1475.76 -32.3851 1625.53 109.223 1514.02 410.726Z" fill="url(#paint0_linear_2_46)"/>
<path d="M2470.12 362.969C2712.41 506.829 1723.78 501.687 944.984 469.237C621.203 469.237 479.992 548.312 479.992 380.448C542.529 310.855 684.059 88.4006 1007.84 88.4006C1331.62 88.4006 1780.31 362.969 2470.12 362.969Z" fill="url(#paint1_linear_2_46)"/>
<path d="M1450.91 311.811C1693.2 455.671 1271.52 566.38 492.733 533.93C168.952 533.93 -109.996 479.676 -109.996 311.811C-47.4588 242.219 -140.984 88.2252 182.797 88.2252C506.579 88.2252 729.093 261.668 1450.91 311.811Z" fill="url(#paint2_linear_2_46)"/>
</g>
<defs>
<linearGradient id="paint0_linear_2_46" x1="790.586" y1="42.9138" x2="790.586" y2="504.531" gradientUnits="userSpaceOnUse">
<stop stop-color="#3D4371"/>
<stop offset="1" stop-color="#979CC8"/>
</linearGradient>
<linearGradient id="paint1_linear_2_46" x1="1493.69" y1="88.4006" x2="1493.69" y2="488.083" gradientUnits="userSpaceOnUse">
<stop stop-color="#514F70"/>
<stop offset="1" stop-color="#28246B"/>
</linearGradient>
<linearGradient id="paint2_linear_2_46" x1="704.611" y1="88.2252" x2="704.611" y2="539.619" gradientUnits="userSpaceOnUse">
<stop stop-color="#272451"/>
<stop offset="1" stop-color="#39375C"/>
</linearGradient>
</defs>
</svg>
