<svg width="1155" height="388" viewBox="0 0 1155 388" fill="none" xmlns="http://www.w3.org/2000/svg">
<path d="M356.389 5.9818C357.31 2.23096 361.098 -0.0625092 364.849 0.859196C368.6 1.7809 370.893 5.56875 369.972 9.3196L349.254 93.6277C348.333 97.3786 344.545 99.672 340.794 98.7503C337.043 97.8286 334.75 94.0408 335.671 90.2899L356.389 5.9818Z" fill="url(#paint0_linear_23_254)"/>
<path d="M336.699 95.8372C335.21 92.2734 336.891 88.1772 340.455 86.688C344.019 85.1988 348.115 86.8807 349.604 90.4445L378.52 159.644C380.009 163.208 378.327 167.304 374.764 168.794C371.2 170.283 367.103 168.601 365.614 165.037L336.699 95.8372Z" fill="url(#paint1_linear_23_254)"/>
<path d="M342.585 238.627C340.893 242.099 336.706 243.542 333.234 241.849C329.762 240.157 328.319 235.971 330.011 232.499L365.579 159.519C367.271 156.047 371.458 154.604 374.93 156.296C378.402 157.988 379.845 162.174 378.152 165.646L342.585 238.627Z" fill="url(#paint2_linear_23_254)"/>
<path d="M625.37 70.9098C626.292 67.1589 630.08 64.8655 633.83 65.7872C637.581 66.7089 639.875 70.4967 638.953 74.2476L618.236 158.556C617.314 162.307 613.526 164.6 609.775 163.678C606.025 162.757 603.731 158.969 604.653 155.218L625.37 70.9098Z" fill="url(#paint3_linear_23_254)"/>
<path d="M605.68 160.765C604.191 157.201 605.873 153.105 609.437 151.616C613.001 150.127 617.097 151.809 618.586 155.372L647.502 224.572C648.991 228.136 647.309 232.232 643.745 233.722C640.181 235.211 636.085 233.529 634.596 229.965L605.68 160.765Z" fill="url(#paint4_linear_23_254)"/>
<path d="M611.566 303.555C609.874 307.027 605.688 308.469 602.216 306.777C598.744 305.085 597.301 300.899 598.993 297.427L634.561 224.447C636.253 220.975 640.439 219.532 643.911 221.224C647.383 222.916 648.826 227.102 647.134 230.574L611.566 303.555Z" fill="url(#paint5_linear_23_254)"/>
<path d="M36.979 103.996C37.5258 101.315 40.0841 99.8104 42.6933 100.636C45.3024 101.462 46.9743 104.306 46.4275 106.987L24.9034 212.55C24.3566 215.232 21.7983 216.736 19.1891 215.91C16.58 215.084 14.9081 212.241 15.4549 209.559L36.979 103.996Z" fill="url(#paint6_linear_23_254)"/>
<path d="M15.657 213.38C14.9986 210.163 16.5996 205.964 19.2329 204.002C21.8661 202.04 24.5346 203.057 25.193 206.274L41.868 287.755C42.5264 290.972 40.9255 295.171 38.2922 297.133C35.6589 299.095 32.9904 298.078 32.332 294.86L15.657 213.38Z" fill="url(#paint7_linear_23_254)"/>
<path d="M9.26769 384.265C8.31076 387.036 5.62147 387.873 3.26101 386.134C0.900546 384.395 -0.237238 380.739 0.719698 377.967L32.5073 285.909C33.4642 283.138 36.1535 282.301 38.514 284.04C40.8745 285.779 42.0122 289.436 41.0553 292.207L9.26769 384.265Z" fill="url(#paint8_linear_23_254)"/>
<path d="M1134.05 6.38692C1134.99 2.33973 1139.01 -0.0898309 1143.03 0.960347C1147.05 2.01052 1149.55 6.14276 1148.61 10.1899L1123.94 116.364C1123 120.411 1118.98 122.841 1114.96 121.79C1110.94 120.74 1108.45 116.608 1109.39 112.561L1134.05 6.38692Z" fill="url(#paint9_linear_23_254)"/>
<path d="M1110.44 117.804C1109.01 113.732 1110.99 108.883 1114.86 106.974C1118.74 105.066 1123.03 106.82 1124.46 110.893L1154.44 196.291C1155.87 200.364 1153.89 205.213 1150.01 207.121C1146.14 209.029 1141.84 207.275 1140.42 203.202L1110.44 117.804Z" fill="url(#paint10_linear_23_254)"/>
<path d="M1113.45 294.468C1111.75 298.32 1107.37 299.818 1103.67 297.815C1099.97 295.812 1098.35 291.066 1100.04 287.214L1140.69 195.106C1142.39 191.254 1146.77 189.756 1150.47 191.759C1154.17 193.762 1155.79 198.508 1154.1 202.36L1113.45 294.468Z" fill="url(#paint11_linear_23_254)"/>
<defs>
<linearGradient id="paint0_linear_23_254" x1="354.183" y1="0.655518" x2="354.183" y2="242.558" gradientUnits="userSpaceOnUse">
<stop offset="0.0260417" stop-color="#FDE48A"/>
<stop offset="1" stop-color="#F5F17D"/>
</linearGradient>
<linearGradient id="paint1_linear_23_254" x1="354.183" y1="0.655518" x2="354.183" y2="242.558" gradientUnits="userSpaceOnUse">
<stop offset="0.0260417" stop-color="#FDE48A"/>
<stop offset="1" stop-color="#F5F17D"/>
</linearGradient>
<linearGradient id="paint2_linear_23_254" x1="354.183" y1="0.655518" x2="354.183" y2="242.558" gradientUnits="userSpaceOnUse">
<stop offset="0.0260417" stop-color="#FDE48A"/>
<stop offset="1" stop-color="#F5F17D"/>
</linearGradient>
<linearGradient id="paint3_linear_23_254" x1="623.164" y1="65.5835" x2="623.164" y2="307.486" gradientUnits="userSpaceOnUse">
<stop offset="0.0260417" stop-color="#FDE48A"/>
<stop offset="1" stop-color="#F5F17D"/>
</linearGradient>
<linearGradient id="paint4_linear_23_254" x1="623.164" y1="65.5835" x2="623.164" y2="307.486" gradientUnits="userSpaceOnUse">
<stop offset="0.0260417" stop-color="#FDE48A"/>
<stop offset="1" stop-color="#F5F17D"/>
</linearGradient>
<linearGradient id="paint5_linear_23_254" x1="623.164" y1="65.5835" x2="623.164" y2="307.486" gradientUnits="userSpaceOnUse">
<stop offset="0.0260417" stop-color="#FDE48A"/>
<stop offset="1" stop-color="#F5F17D"/>
</linearGradient>
<linearGradient id="paint6_linear_23_254" x1="23.4559" y1="100.41" x2="23.4559" y2="387.041" gradientUnits="userSpaceOnUse">
<stop offset="0.0260417" stop-color="#FDE48A"/>
<stop offset="1" stop-color="#F5F17D"/>
</linearGradient>
<linearGradient id="paint7_linear_23_254" x1="23.4559" y1="100.41" x2="23.4559" y2="387.041" gradientUnits="userSpaceOnUse">
<stop offset="0.0260417" stop-color="#FDE48A"/>
<stop offset="1" stop-color="#F5F17D"/>
</linearGradient>
<linearGradient id="paint8_linear_23_254" x1="23.4559" y1="100.41" x2="23.4559" y2="387.041" gradientUnits="userSpaceOnUse">
<stop offset="0.0260417" stop-color="#FDE48A"/>
<stop offset="1" stop-color="#F5F17D"/>
</linearGradient>
<linearGradient id="paint9_linear_23_254" x1="1127.14" y1="0.71582" x2="1127.14" y2="298.703" gradientUnits="userSpaceOnUse">
<stop stop-color="#D1D34E"/>
<stop offset="1" stop-color="#FAFFDC"/>
</linearGradient>
<linearGradient id="paint10_linear_23_254" x1="1127.14" y1="0.71582" x2="1127.14" y2="298.703" gradientUnits="userSpaceOnUse">
<stop stop-color="#D1D34E"/>
<stop offset="1" stop-color="#FAFFDC"/>
</linearGradient>
<linearGradient id="paint11_linear_23_254" x1="1127.14" y1="0.71582" x2="1127.14" y2="298.703" gradientUnits="userSpaceOnUse">
<stop stop-color="#D1D34E"/>
<stop offset="1" stop-color="#FAFFDC"/>
</linearGradient>
</defs>
</svg>
