<svg width="1374" height="377" viewBox="0 0 1374 377" fill="none" xmlns="http://www.w3.org/2000/svg">
<rect x="90.6281" y="299.454" width="4.74616" height="56.1934" rx="2.37308" transform="rotate(24.6928 90.6281 299.454)" fill="url(#paint0_linear_23_152)"/>
<rect x="213.664" y="282.35" width="3.8637" height="55.5366" rx="1.93185" transform="rotate(17.1269 213.664 282.35)" fill="url(#paint1_linear_23_152)"/>
<rect x="159.971" y="269.329" width="3.54498" height="73.9991" rx="1.77249" transform="rotate(24.6928 159.971 269.329)" fill="url(#paint2_linear_23_152)"/>
<rect x="19.8757" y="280.557" width="4.74616" height="56.1934" rx="2.37308" transform="rotate(11.553 19.8757 280.557)" fill="url(#paint3_linear_23_152)"/>
<rect x="428.843" y="234.777" width="3.8637" height="68.7539" rx="1.93185" transform="rotate(17.1269 428.843 234.777)" fill="url(#paint4_linear_23_152)"/>
<rect x="303.333" y="247.656" width="3.54498" height="73.9991" rx="1.77249" transform="rotate(24.6928 303.333 247.656)" fill="url(#paint5_linear_23_152)"/>
<rect x="466.239" y="216.291" width="4.74616" height="56.1934" rx="2.37308" transform="rotate(24.6928 466.239 216.291)" fill="url(#paint6_linear_23_152)"/>
<rect x="589.275" y="199.188" width="3.8637" height="55.5366" rx="1.93185" transform="rotate(17.1269 589.275 199.188)" fill="url(#paint7_linear_23_152)"/>
<path d="M519.542 194.972C519.857 194.286 520.668 193.986 521.354 194.301V194.301C522.039 194.616 522.339 195.428 522.024 196.113L507.138 228.488L492.252 260.864C491.937 261.549 491.126 261.849 490.44 261.534V261.534C489.755 261.219 489.455 260.408 489.77 259.722L519.542 194.972Z" fill="url(#paint8_linear_23_152)"/>
<rect x="379.278" y="204.618" width="4.74616" height="56.1934" rx="2.37308" transform="rotate(11.553 379.278 204.618)" fill="url(#paint9_linear_23_152)"/>
<rect x="732.321" y="241.672" width="3.8637" height="68.7539" rx="1.93185" transform="rotate(17.1269 732.321 241.672)" fill="url(#paint10_linear_23_152)"/>
<rect x="708.853" y="178.942" width="3.54498" height="73.9991" rx="1.77249" transform="rotate(24.6928 708.853 178.942)" fill="url(#paint11_linear_23_152)"/>
<rect x="909.256" y="289.086" width="4.74616" height="56.1934" rx="2.37308" transform="rotate(24.6928 909.256 289.086)" fill="url(#paint12_linear_23_152)"/>
<rect x="1286.7" y="262.531" width="3.8637" height="55.5366" rx="1.93185" transform="rotate(17.1269 1286.7 262.531)" fill="url(#paint13_linear_23_152)"/>
<rect x="966.848" y="291.068" width="3.54498" height="73.9991" rx="1.77249" transform="rotate(24.6928 966.848 291.068)" fill="url(#paint14_linear_23_152)"/>
<rect x="813.379" y="301.62" width="4.74616" height="56.1934" rx="2.37308" transform="rotate(11.553 813.379 301.62)" fill="url(#paint15_linear_23_152)"/>
<rect x="1038.17" y="309.456" width="3.8637" height="68.7539" rx="1.93185" transform="rotate(17.1269 1038.17 309.456)" fill="url(#paint16_linear_23_152)"/>
<rect x="1134.05" y="283.863" width="3.54498" height="73.9991" rx="1.77249" transform="rotate(24.6928 1134.05 283.863)" fill="url(#paint17_linear_23_152)"/>
<rect x="1250.39" y="175.423" width="3.8637" height="55.5366" rx="1.93185" transform="rotate(17.1269 1250.39 175.423)" fill="url(#paint18_linear_23_152)"/>
<rect x="1196.69" y="162.402" width="3.54498" height="73.9991" rx="1.77249" transform="rotate(24.6928 1196.69 162.402)" fill="url(#paint19_linear_23_152)"/>
<rect x="1313.4" y="152.203" width="3.8637" height="68.7539" rx="1.93185" transform="rotate(17.1269 1313.4 152.203)" fill="url(#paint20_linear_23_152)"/>
<rect x="1369.97" y="155.178" width="3.54498" height="73.9991" rx="1.77249" transform="rotate(24.6928 1369.97 155.178)" fill="url(#paint21_linear_23_152)"/>
<rect x="82.676" y="147.971" width="4.74616" height="56.1934" rx="2.37308" transform="rotate(24.6928 82.676 147.971)" fill="url(#paint22_linear_23_152)"/>
<rect x="205.712" y="130.867" width="3.8637" height="55.5366" rx="1.93185" transform="rotate(17.1269 205.712 130.867)" fill="url(#paint23_linear_23_152)"/>
<rect x="152.019" y="117.846" width="3.54498" height="73.9991" rx="1.77249" transform="rotate(24.6928 152.019 117.846)" fill="url(#paint24_linear_23_152)"/>
<rect x="11.9236" y="129.074" width="4.74616" height="56.1934" rx="2.37308" transform="rotate(11.553 11.9236 129.074)" fill="url(#paint25_linear_23_152)"/>
<rect x="268.728" y="107.647" width="3.8637" height="68.7539" rx="1.93185" transform="rotate(17.1269 268.728 107.647)" fill="url(#paint26_linear_23_152)"/>
<rect x="325.291" y="110.622" width="3.54498" height="73.9991" rx="1.77249" transform="rotate(24.6928 325.291 110.622)" fill="url(#paint27_linear_23_152)"/>
<rect x="458.287" y="64.8083" width="4.74616" height="56.1934" rx="2.37308" transform="rotate(24.6928 458.287 64.8083)" fill="url(#paint28_linear_23_152)"/>
<rect x="581.323" y="47.7046" width="3.8637" height="55.5366" rx="1.93185" transform="rotate(17.1269 581.323 47.7046)" fill="url(#paint29_linear_23_152)"/>
<path d="M527.798 36.2642C528.113 35.5788 528.924 35.2787 529.61 35.5938V35.5938C530.295 35.909 530.595 36.7201 530.28 37.4055L515.394 69.7808L500.508 102.156C500.193 102.842 499.382 103.142 498.696 102.827V102.827C498.011 102.511 497.711 101.7 498.026 101.015L527.798 36.2642Z" fill="url(#paint30_linear_23_152)"/>
<rect x="387.534" y="45.9109" width="4.74616" height="56.1934" rx="2.37308" transform="rotate(11.553 387.534 45.9109)" fill="url(#paint31_linear_23_152)"/>
<rect x="644.339" y="24.4844" width="3.8637" height="68.7539" rx="1.93185" transform="rotate(17.1269 644.339 24.4844)" fill="url(#paint32_linear_23_152)"/>
<rect x="700.901" y="27.459" width="3.54498" height="73.9991" rx="1.77249" transform="rotate(24.6928 700.901 27.459)" fill="url(#paint33_linear_23_152)"/>
<rect x="855.918" y="166.189" width="4.74616" height="56.1934" rx="2.37308" transform="rotate(24.6928 855.918 166.189)" fill="url(#paint34_linear_23_152)"/>
<rect x="967.203" y="181.193" width="3.8637" height="55.5366" rx="1.93185" transform="rotate(17.1269 967.203 181.193)" fill="url(#paint35_linear_23_152)"/>
<rect x="913.51" y="168.172" width="3.54498" height="73.9991" rx="1.77249" transform="rotate(24.6928 913.51 168.172)" fill="url(#paint36_linear_23_152)"/>
<rect x="805.427" y="150.137" width="4.74616" height="56.1934" rx="2.37308" transform="rotate(11.553 805.427 150.137)" fill="url(#paint37_linear_23_152)"/>
<rect x="1030.22" y="157.973" width="3.8637" height="68.7539" rx="1.93185" transform="rotate(17.1269 1030.22 157.973)" fill="url(#paint38_linear_23_152)"/>
<rect x="1086.78" y="160.948" width="3.54498" height="73.9991" rx="1.77249" transform="rotate(24.6928 1086.78 160.948)" fill="url(#paint39_linear_23_152)"/>
<rect x="1242.43" y="23.9404" width="3.8637" height="55.5366" rx="1.93185" transform="rotate(17.1269 1242.43 23.9404)" fill="url(#paint40_linear_23_152)"/>
<rect x="1188.74" y="10.9194" width="3.54498" height="73.9991" rx="1.77249" transform="rotate(24.6928 1188.74 10.9194)" fill="url(#paint41_linear_23_152)"/>
<rect x="1305.45" y="0.720215" width="3.8637" height="68.7539" rx="1.93185" transform="rotate(17.1269 1305.45 0.720215)" fill="url(#paint42_linear_23_152)"/>
<rect x="1362.01" y="3.69482" width="3.54498" height="73.9991" rx="1.77249" transform="rotate(24.6928 1362.01 3.69482)" fill="url(#paint43_linear_23_152)"/>
<defs>
<linearGradient id="paint0_linear_23_152" x1="93.1784" y1="309.585" x2="92.7797" y2="363.303" gradientUnits="userSpaceOnUse">
<stop stop-color="#73B3FF"/>
<stop offset="1" stop-color="#195EE4" stop-opacity="0"/>
</linearGradient>
<linearGradient id="paint1_linear_23_152" x1="215.74" y1="292.362" x2="215.262" y2="345.452" gradientUnits="userSpaceOnUse">
<stop stop-color="#73B3FF"/>
<stop offset="1" stop-color="#195EE4" stop-opacity="0"/>
</linearGradient>
<linearGradient id="paint2_linear_23_152" x1="161.876" y1="282.67" x2="160.95" y2="353.402" gradientUnits="userSpaceOnUse">
<stop stop-color="#73B3FF"/>
<stop offset="1" stop-color="#195EE4" stop-opacity="0"/>
</linearGradient>
<linearGradient id="paint3_linear_23_152" x1="22.426" y1="290.687" x2="22.0273" y2="344.406" gradientUnits="userSpaceOnUse">
<stop stop-color="#73B3FF"/>
<stop offset="1" stop-color="#195EE4" stop-opacity="0"/>
</linearGradient>
<linearGradient id="paint4_linear_23_152" x1="430.92" y1="247.173" x2="430.186" y2="312.894" gradientUnits="userSpaceOnUse">
<stop stop-color="#73B3FF"/>
<stop offset="1" stop-color="#195EE4" stop-opacity="0"/>
</linearGradient>
<linearGradient id="paint5_linear_23_152" x1="305.238" y1="260.996" x2="304.313" y2="331.728" gradientUnits="userSpaceOnUse">
<stop stop-color="#73B3FF"/>
<stop offset="1" stop-color="#195EE4" stop-opacity="0"/>
</linearGradient>
<linearGradient id="paint6_linear_23_152" x1="468.789" y1="226.422" x2="468.391" y2="280.141" gradientUnits="userSpaceOnUse">
<stop stop-color="#73B3FF"/>
<stop offset="1" stop-color="#195EE4" stop-opacity="0"/>
</linearGradient>
<linearGradient id="paint7_linear_23_152" x1="591.351" y1="209.2" x2="590.872" y2="262.289" gradientUnits="userSpaceOnUse">
<stop stop-color="#73B3FF"/>
<stop offset="1" stop-color="#195EE4" stop-opacity="0"/>
</linearGradient>
<linearGradient id="paint8_linear_23_152" x1="514.725" y1="205.937" x2="484.628" y2="269.957" gradientUnits="userSpaceOnUse">
<stop stop-color="#73B3FF"/>
<stop offset="1" stop-color="#195EE4" stop-opacity="0"/>
</linearGradient>
<linearGradient id="paint9_linear_23_152" x1="381.829" y1="214.749" x2="381.43" y2="268.468" gradientUnits="userSpaceOnUse">
<stop stop-color="#73B3FF"/>
<stop offset="1" stop-color="#195EE4" stop-opacity="0"/>
</linearGradient>
<linearGradient id="paint10_linear_23_152" x1="734.398" y1="254.068" x2="733.664" y2="319.789" gradientUnits="userSpaceOnUse">
<stop stop-color="#73B3FF"/>
<stop offset="1" stop-color="#195EE4" stop-opacity="0"/>
</linearGradient>
<linearGradient id="paint11_linear_23_152" x1="710.758" y1="192.283" x2="709.833" y2="263.015" gradientUnits="userSpaceOnUse">
<stop stop-color="#73B3FF"/>
<stop offset="1" stop-color="#195EE4" stop-opacity="0"/>
</linearGradient>
<linearGradient id="paint12_linear_23_152" x1="911.807" y1="299.216" x2="911.408" y2="352.935" gradientUnits="userSpaceOnUse">
<stop stop-color="#73B3FF"/>
<stop offset="1" stop-color="#195EE4" stop-opacity="0"/>
</linearGradient>
<linearGradient id="paint13_linear_23_152" x1="1288.77" y1="272.543" x2="1288.3" y2="325.632" gradientUnits="userSpaceOnUse">
<stop stop-color="#73B3FF"/>
<stop offset="1" stop-color="#195EE4" stop-opacity="0"/>
</linearGradient>
<linearGradient id="paint14_linear_23_152" x1="968.753" y1="304.409" x2="967.828" y2="375.141" gradientUnits="userSpaceOnUse">
<stop stop-color="#73B3FF"/>
<stop offset="1" stop-color="#195EE4" stop-opacity="0"/>
</linearGradient>
<linearGradient id="paint15_linear_23_152" x1="815.929" y1="311.751" x2="815.53" y2="365.469" gradientUnits="userSpaceOnUse">
<stop stop-color="#73B3FF"/>
<stop offset="1" stop-color="#195EE4" stop-opacity="0"/>
</linearGradient>
<linearGradient id="paint16_linear_23_152" x1="1040.25" y1="321.851" x2="1039.51" y2="387.573" gradientUnits="userSpaceOnUse">
<stop stop-color="#73B3FF"/>
<stop offset="1" stop-color="#195EE4" stop-opacity="0"/>
</linearGradient>
<linearGradient id="paint17_linear_23_152" x1="1135.96" y1="297.204" x2="1135.03" y2="367.936" gradientUnits="userSpaceOnUse">
<stop stop-color="#73B3FF"/>
<stop offset="1" stop-color="#195EE4" stop-opacity="0"/>
</linearGradient>
<linearGradient id="paint18_linear_23_152" x1="1252.46" y1="185.436" x2="1251.98" y2="238.525" gradientUnits="userSpaceOnUse">
<stop stop-color="#73B3FF"/>
<stop offset="1" stop-color="#195EE4" stop-opacity="0"/>
</linearGradient>
<linearGradient id="paint19_linear_23_152" x1="1198.6" y1="175.743" x2="1197.67" y2="246.475" gradientUnits="userSpaceOnUse">
<stop stop-color="#73B3FF"/>
<stop offset="1" stop-color="#195EE4" stop-opacity="0"/>
</linearGradient>
<linearGradient id="paint20_linear_23_152" x1="1315.48" y1="164.598" x2="1314.75" y2="230.32" gradientUnits="userSpaceOnUse">
<stop stop-color="#73B3FF"/>
<stop offset="1" stop-color="#195EE4" stop-opacity="0"/>
</linearGradient>
<linearGradient id="paint21_linear_23_152" x1="1371.87" y1="168.519" x2="1370.95" y2="239.25" gradientUnits="userSpaceOnUse">
<stop stop-color="#73B3FF"/>
<stop offset="1" stop-color="#195EE4" stop-opacity="0"/>
</linearGradient>
<linearGradient id="paint22_linear_23_152" x1="85.2264" y1="158.102" x2="84.8277" y2="211.82" gradientUnits="userSpaceOnUse">
<stop stop-color="#73B3FF"/>
<stop offset="1" stop-color="#195EE4" stop-opacity="0"/>
</linearGradient>
<linearGradient id="paint23_linear_23_152" x1="207.788" y1="140.88" x2="207.31" y2="193.969" gradientUnits="userSpaceOnUse">
<stop stop-color="#73B3FF"/>
<stop offset="1" stop-color="#195EE4" stop-opacity="0"/>
</linearGradient>
<linearGradient id="paint24_linear_23_152" x1="153.924" y1="131.187" x2="152.998" y2="201.919" gradientUnits="userSpaceOnUse">
<stop stop-color="#73B3FF"/>
<stop offset="1" stop-color="#195EE4" stop-opacity="0"/>
</linearGradient>
<linearGradient id="paint25_linear_23_152" x1="14.474" y1="139.204" x2="14.0753" y2="192.923" gradientUnits="userSpaceOnUse">
<stop stop-color="#73B3FF"/>
<stop offset="1" stop-color="#195EE4" stop-opacity="0"/>
</linearGradient>
<linearGradient id="paint26_linear_23_152" x1="270.804" y1="120.042" x2="270.071" y2="185.764" gradientUnits="userSpaceOnUse">
<stop stop-color="#73B3FF"/>
<stop offset="1" stop-color="#195EE4" stop-opacity="0"/>
</linearGradient>
<linearGradient id="paint27_linear_23_152" x1="327.195" y1="123.963" x2="326.27" y2="194.695" gradientUnits="userSpaceOnUse">
<stop stop-color="#73B3FF"/>
<stop offset="1" stop-color="#195EE4" stop-opacity="0"/>
</linearGradient>
<linearGradient id="paint28_linear_23_152" x1="460.837" y1="74.9391" x2="460.439" y2="128.658" gradientUnits="userSpaceOnUse">
<stop stop-color="#73B3FF"/>
<stop offset="1" stop-color="#195EE4" stop-opacity="0"/>
</linearGradient>
<linearGradient id="paint29_linear_23_152" x1="583.399" y1="57.7169" x2="582.92" y2="110.806" gradientUnits="userSpaceOnUse">
<stop stop-color="#73B3FF"/>
<stop offset="1" stop-color="#195EE4" stop-opacity="0"/>
</linearGradient>
<linearGradient id="paint30_linear_23_152" x1="522.981" y1="47.2293" x2="492.884" y2="111.249" gradientUnits="userSpaceOnUse">
<stop stop-color="#73B3FF"/>
<stop offset="1" stop-color="#195EE4" stop-opacity="0"/>
</linearGradient>
<linearGradient id="paint31_linear_23_152" x1="390.085" y1="56.0416" x2="389.686" y2="109.76" gradientUnits="userSpaceOnUse">
<stop stop-color="#73B3FF"/>
<stop offset="1" stop-color="#195EE4" stop-opacity="0"/>
</linearGradient>
<linearGradient id="paint32_linear_23_152" x1="646.415" y1="36.8795" x2="645.682" y2="102.601" gradientUnits="userSpaceOnUse">
<stop stop-color="#73B3FF"/>
<stop offset="1" stop-color="#195EE4" stop-opacity="0"/>
</linearGradient>
<linearGradient id="paint33_linear_23_152" x1="702.806" y1="40.7998" x2="701.881" y2="111.532" gradientUnits="userSpaceOnUse">
<stop stop-color="#73B3FF"/>
<stop offset="1" stop-color="#195EE4" stop-opacity="0"/>
</linearGradient>
<linearGradient id="paint34_linear_23_152" x1="858.469" y1="176.32" x2="858.07" y2="230.039" gradientUnits="userSpaceOnUse">
<stop stop-color="#73B3FF"/>
<stop offset="1" stop-color="#195EE4" stop-opacity="0"/>
</linearGradient>
<linearGradient id="paint35_linear_23_152" x1="969.279" y1="191.206" x2="968.801" y2="244.295" gradientUnits="userSpaceOnUse">
<stop stop-color="#73B3FF"/>
<stop offset="1" stop-color="#195EE4" stop-opacity="0"/>
</linearGradient>
<linearGradient id="paint36_linear_23_152" x1="915.415" y1="181.513" x2="914.49" y2="252.245" gradientUnits="userSpaceOnUse">
<stop stop-color="#73B3FF"/>
<stop offset="1" stop-color="#195EE4" stop-opacity="0"/>
</linearGradient>
<linearGradient id="paint37_linear_23_152" x1="807.977" y1="160.268" x2="807.578" y2="213.986" gradientUnits="userSpaceOnUse">
<stop stop-color="#73B3FF"/>
<stop offset="1" stop-color="#195EE4" stop-opacity="0"/>
</linearGradient>
<linearGradient id="paint38_linear_23_152" x1="1032.3" y1="170.368" x2="1031.56" y2="236.09" gradientUnits="userSpaceOnUse">
<stop stop-color="#73B3FF"/>
<stop offset="1" stop-color="#195EE4" stop-opacity="0"/>
</linearGradient>
<linearGradient id="paint39_linear_23_152" x1="1088.69" y1="174.289" x2="1087.76" y2="245.02" gradientUnits="userSpaceOnUse">
<stop stop-color="#73B3FF"/>
<stop offset="1" stop-color="#195EE4" stop-opacity="0"/>
</linearGradient>
<linearGradient id="paint40_linear_23_152" x1="1244.51" y1="33.9527" x2="1244.03" y2="87.042" gradientUnits="userSpaceOnUse">
<stop stop-color="#73B3FF"/>
<stop offset="1" stop-color="#195EE4" stop-opacity="0"/>
</linearGradient>
<linearGradient id="paint41_linear_23_152" x1="1190.65" y1="24.2602" x2="1189.72" y2="94.9921" gradientUnits="userSpaceOnUse">
<stop stop-color="#73B3FF"/>
<stop offset="1" stop-color="#195EE4" stop-opacity="0"/>
</linearGradient>
<linearGradient id="paint42_linear_23_152" x1="1307.53" y1="13.1154" x2="1306.79" y2="78.8367" gradientUnits="userSpaceOnUse">
<stop stop-color="#73B3FF"/>
<stop offset="1" stop-color="#195EE4" stop-opacity="0"/>
</linearGradient>
<linearGradient id="paint43_linear_23_152" x1="1363.92" y1="17.0356" x2="1362.99" y2="87.7675" gradientUnits="userSpaceOnUse">
<stop stop-color="#73B3FF"/>
<stop offset="1" stop-color="#195EE4" stop-opacity="0"/>
</linearGradient>
</defs>
</svg>
