<svg width="1322" height="413" viewBox="0 0 1322 413" fill="none" xmlns="http://www.w3.org/2000/svg">
<circle cx="54.228" cy="101.857" r="4.96448" fill="#D9D9D9"/>
<circle cx="132.104" cy="147.177" r="4.96448" fill="#D9D9D9"/>
<circle cx="216.888" cy="235.108" r="4.96448" fill="#D9D9D9"/>
<circle cx="284.716" cy="118.885" r="4.96448" fill="#D9D9D9"/>
<circle cx="5.49219" cy="225.179" r="4.96448" fill="#D9D9D9"/>
<circle cx="84.3482" cy="263.401" r="4.96448" fill="#D9D9D9"/>
<circle cx="162.224" cy="308.722" r="4.96448" fill="#D9D9D9"/>
<circle cx="247.008" cy="396.652" r="4.96448" fill="#D9D9D9"/>
<circle cx="314.836" cy="280.429" r="4.96448" fill="#D9D9D9"/>
<circle cx="360.039" cy="68.9596" r="4.96448" fill="#D9D9D9"/>
<circle cx="432.829" cy="5.29554" r="4.96448" fill="#D9D9D9"/>
<circle cx="577.856" cy="35.7023" r="4.96448" fill="#D9D9D9"/>
<circle cx="442.758" cy="161.855" r="4.96448" fill="#D9D9D9"/>
<circle cx="522.58" cy="258.436" r="4.96448" fill="#D9D9D9"/>
<circle cx="1233.79" cy="35.7023" r="4.96448" fill="#D9D9D9"/>
<circle cx="1179.12" cy="109.316" r="4.96448" fill="#D9D9D9"/>
<circle cx="1311.54" cy="137.248" r="4.96448" fill="#D9D9D9"/>
<circle cx="567.927" cy="124.517" r="4.96448" fill="#D9D9D9"/>
<circle cx="646.783" cy="80.08" r="4.96448" fill="#D9D9D9"/>
<circle cx="706.412" cy="245.705" r="4.96448" fill="#D9D9D9"/>
<circle cx="774.239" cy="129.482" r="4.96448" fill="#D9D9D9"/>
<circle cx="651.747" cy="319.319" r="4.96448" fill="#D9D9D9"/>
<circle cx="736.532" cy="407.249" r="4.96448" fill="#D9D9D9"/>
<circle cx="861.964" cy="280.429" r="4.96448" fill="#D9D9D9"/>
<circle cx="956.972" cy="166.819" r="4.96448" fill="#D9D9D9"/>
<circle cx="1092.19" cy="152.142" r="4.96448" fill="#D9D9D9"/>
<circle cx="1034.73" cy="268.365" r="4.96448" fill="#D9D9D9"/>
<circle cx="1218.56" cy="255.634" r="4.96448" fill="#D9D9D9"/>
<circle cx="1316.51" cy="300.955" r="4.96448" fill="#D9D9D9"/>
<circle cx="35.6124" cy="386.724" r="4.96448" fill="#D9D9D9"/>
</svg>
